<svg id="visual" viewBox="0 0 900 600" width="900" height="600" xmlns="http://www.w3.org/2000/svg" xmlns:xlink="http://www.w3.org/1999/xlink" version="1.1"><rect x="0" y="0" width="900" height="600" fill="#5c02e1"></rect><defs><linearGradient id="grad1_0" x1="33.3%" y1="0%" x2="100%" y2="100%"><stop offset="20%" stop-color="#5c02e1" stop-opacity="1"></stop><stop offset="80%" stop-color="#5c02e1" stop-opacity="1"></stop></linearGradient></defs><defs><linearGradient id="grad2_0" x1="0%" y1="0%" x2="66.7%" y2="100%"><stop offset="20%" stop-color="#5c02e1" stop-opacity="1"></stop><stop offset="80%" stop-color="#5c02e1" stop-opacity="1"></stop></linearGradient></defs><g transform="translate(900, 0)"><path d="M0 432.7C-32.9 412 -65.8 391.3 -103.3 385.4C-140.7 379.5 -182.8 388.3 -216.3 374.7C-249.9 361.1 -275 325.1 -286.4 286.4C-297.8 247.7 -295.6 206.3 -302.2 174.5C-308.9 142.7 -324.5 120.6 -347.7 93.2C-371 65.7 -401.8 32.9 -432.7 0L0 0Z" fill="#2b2b2b"></path></g><g transform="translate(0, 600)"><path d="M0 -432.7C39.4 -434.3 78.7 -435.9 112 -417.9C145.2 -399.9 172.3 -362.3 189 -327.4C205.7 -292.4 212 -260.2 246.1 -246.1C280.2 -232 342.1 -236.1 373.3 -215.5C404.4 -194.9 404.8 -149.8 409.6 -109.7C414.3 -69.7 423.5 -34.9 432.7 0L0 0Z" fill="#2b2b2b"></path></g></svg>