<svg id="visual" viewBox="0 0 960 540" width="960" height="540" xmlns="http://www.w3.org/2000/svg" xmlns:xlink="http://www.w3.org/1999/xlink" version="1.1"><rect x="0" y="0" width="960" height="540" fill="#2b2b2b"></rect><defs><linearGradient id="grad1_0" x1="43.8%" y1="0%" x2="100%" y2="100%"><stop offset="14.444444444444446%" stop-color="#2b2b2b" stop-opacity="1"></stop><stop offset="85.55555555555554%" stop-color="#2b2b2b" stop-opacity="1"></stop></linearGradient></defs><defs><linearGradient id="grad2_0" x1="0%" y1="0%" x2="56.3%" y2="100%"><stop offset="14.444444444444446%" stop-color="#2b2b2b" stop-opacity="1"></stop><stop offset="85.55555555555554%" stop-color="#2b2b2b" stop-opacity="1"></stop></linearGradient></defs><g transform="translate(960, 0)"><path d="M0 459C-41 457.2 -81.9 455.3 -118 440.5C-154.1 425.6 -185.3 397.8 -216.5 375C-247.7 352.2 -278.9 334.5 -312.5 312.5C-346.2 290.6 -382.2 264.5 -397.5 229.5C-412.9 194.5 -407.6 150.8 -414.4 111C-421.2 71.3 -440.1 35.7 -459 0L0 0Z" fill="#4934d2"></path></g><g transform="translate(0, 540)"><path d="M0 -459C36.5 -441 73.1 -423 110.3 -411.5C147.4 -400 185.3 -395.1 218 -377.6C250.7 -360.1 278.3 -329.9 299.1 -299.1C319.9 -268.3 334 -236.8 360.3 -208C386.5 -179.2 424.9 -153 443.4 -118.8C461.8 -84.6 460.4 -42.3 459 0L0 0Z" fill="#4934d2"></path></g></svg>