<svg id="visual" viewBox="0 0 960 540" width="960" height="540" xmlns="http://www.w3.org/2000/svg" xmlns:xlink="http://www.w3.org/1999/xlink" version="1.1"><rect x="0" y="0" width="960" height="540" fill="#2b2b2b"></rect><defs><linearGradient id="grad1_0" x1="43.8%" y1="0%" x2="100%" y2="100%"><stop offset="14.444444444444446%" stop-color="#2b2b2b" stop-opacity="1"></stop><stop offset="85.55555555555554%" stop-color="#2b2b2b" stop-opacity="1"></stop></linearGradient></defs><defs><linearGradient id="grad2_0" x1="0%" y1="0%" x2="56.3%" y2="100%"><stop offset="14.444444444444446%" stop-color="#2b2b2b" stop-opacity="1"></stop><stop offset="85.55555555555554%" stop-color="#2b2b2b" stop-opacity="1"></stop></linearGradient></defs><g transform="translate(960, 0)"><path d="M0 405C-51.7 398.7 -103.3 392.4 -155 374.2C-206.6 356 -258.3 325.9 -282.1 282.1C-306 238.4 -302 180.9 -317.8 131.6C-333.7 82.3 -369.3 41.2 -405 0L0 0Z" fill="#512888"></path></g><g transform="translate(0, 540)"><path d="M0 -405C50.1 -388.1 100.1 -371.1 144.7 -349.2C189.2 -327.3 228.2 -300.4 268.7 -268.7C309.2 -237 351.2 -200.6 374.2 -155C397.1 -109.4 401.1 -54.7 405 0L0 0Z" fill="#512888"></path></g></svg>